<?xml version="1.0" encoding="utf-8"?>
<!-- Generator: Adobe Illustrator 18.0.0, SVG Export Plug-In . SVG Version: 6.00 Build 0)  -->
<!DOCTYPE svg PUBLIC "-//W3C//DTD SVG 1.1//EN" "http://www.w3.org/Graphics/SVG/1.1/DTD/svg11.dtd">
<svg version="1.1" id="Layer_1" xmlns="http://www.w3.org/2000/svg" xmlns:xlink="http://www.w3.org/1999/xlink" x="0px" y="0px"
	 width="24px" height="24px" viewBox="0 0 24 24" enable-background="new 0 0 24 24" xml:space="preserve">
<path fill="#FFFFFF" d="M24,4.557c-0.882999,0.392-1.832001,0.656-2.827999,0.775c1.017-0.609,1.798-1.574,2.165001-2.724
	c-0.951,0.564-2.005001,0.974-3.127001,1.195c-0.896999-0.957-2.177999-1.555-3.594-1.555c-3.179,0-5.514999,2.966-4.797,6.045001
	c-4.091-0.205-7.719-2.165-10.148-5.144c-1.29,2.213-0.669,5.108,1.523,6.574c-0.806-0.026-1.566-0.247-2.229-0.616
	c-0.054,2.281,1.581,4.415,3.949,4.89c-0.693,0.188-1.452,0.232-2.224,0.084c0.626,1.955999,2.444,3.379,4.6,3.419001
	c-2.07,1.622999-4.678,2.348-7.29,2.039999c2.179,1.396999,4.768,2.212,7.548,2.212c9.142001,0,14.307-7.721001,13.995-14.646
	C22.505001,6.411001,23.340002,5.544001,24,4.557z"/>
</svg>
