<?xml version="1.0" encoding="utf-8"?>
<!-- Generator: Adobe Illustrator 18.0.0, SVG Export Plug-In . SVG Version: 6.00 Build 0)  -->
<!DOCTYPE svg PUBLIC "-//W3C//DTD SVG 1.1//EN" "http://www.w3.org/Graphics/SVG/1.1/DTD/svg11.dtd">
<svg version="1.1" id="Layer_1" xmlns="http://www.w3.org/2000/svg" xmlns:xlink="http://www.w3.org/1999/xlink" x="0px" y="0px"
	 width="15px" height="15px" viewBox="0 0 15 15" enable-background="new 0 0 15 15" xml:space="preserve">
<g>
	<path fill="#999999" d="M12.748047,5.215503c-0.276367,0-0.5,0.223633-0.5,0.5v7.55957
		c0,0.399414-0.325195,0.724609-0.725586,0.724609H1.724609C1.325195,13.999682,1,13.674487,1,13.275073V3.477222
		C1,3.07732,1.325195,2.752124,1.724609,2.752124h7.612793c0.275879,0,0.500488-0.223633,0.500488-0.5s-0.224609-0.5-0.500488-0.5
		H1.724609C0.773438,1.752124,0,2.52605,0,3.477222v9.797852c0,0.951172,0.773438,1.724609,1.724609,1.724609h9.797852
		c0.951172,0,1.725586-0.773438,1.725586-1.724609v-7.55957C13.248047,5.439136,13.024414,5.215503,12.748047,5.215503z"/>
	<path fill="#999999" d="M14.961548,0.309253c-0.050659-0.122437-0.148193-0.219971-0.27063-0.27063
		C14.629822,0.013355,14.565063,0.000171,14.5,0.000171h-3.673828c-0.276367,0-0.5,0.223633-0.5,0.5s0.223633,0.5,0.5,0.5h2.466797
		L8.083496,6.209644c-0.195312,0.195312-0.195312,0.511719,0,0.707031c0.097656,0.097656,0.225586,0.146484,0.353516,0.146484
		s0.255859-0.048828,0.353516-0.146484L14,1.707202v2.567871c0,0.276367,0.223633,0.5,0.5,0.5s0.5-0.223633,0.5-0.5V0.600757
		c0-0.017517-0.008179-0.032349-0.009949-0.049438C14.998657,0.469287,14.993591,0.386707,14.961548,0.309253z"/>
</g>
</svg>
