<?xml version="1.0" encoding="utf-8"?>
<!-- Generator: Adobe Illustrator 18.0.0, SVG Export Plug-In . SVG Version: 6.00 Build 0)  -->
<!DOCTYPE svg PUBLIC "-//W3C//DTD SVG 1.1//EN" "http://www.w3.org/Graphics/SVG/1.1/DTD/svg11.dtd">
<svg version="1.1" id="Layer_1" xmlns="http://www.w3.org/2000/svg" xmlns:xlink="http://www.w3.org/1999/xlink" x="0px" y="0px"
	 width="24px" height="24px" viewBox="0 0 24 24" enable-background="new 0 0 24 24" xml:space="preserve">
<path fill="#FFFFFF" d="M19.530331,15.061581c-1.40062,0-2.637293,0.660731-3.457203,1.672277l-7.446289-3.12523
	C8.821289,13.107939,8.938419,12.568532,8.938419,12c0-0.596163-0.122128-1.163316-0.334961-1.683824l7.417738-3.113281
	c0.818533,1.048196,2.079275,1.735524,3.509134,1.735524C21.994486,8.938419,24,6.933364,24,4.46921S21.994486,0,19.530331,0
	s-4.46875,2.005055-4.46875,4.46921c0,0.525161,0.107652,1.022058,0.274759,1.490521L7.844727,9.104033
	C7.024414,8.1493,5.823587,7.53079,4.46921,7.53079C2.005055,7.53079,0,9.535846,0,12s2.005055,4.469669,4.46921,4.469669
	c1.383846,0,2.607307-0.645738,3.427734-1.636776l7.462718,3.132122c-0.184225,0.488972-0.298081,1.012638-0.298081,1.565315
	c0,2.464155,2.004597,4.469669,4.46875,4.469669S24,21.994486,24,19.530331S21.994486,15.061581,19.530331,15.061581z
	 M19.530331,1.411765c1.686581,0,3.057905,1.371783,3.057905,3.057445s-1.371325,3.057445-3.057905,3.057445
	c-1.685661,0-3.056986-1.371783-3.056986-3.057445S17.844669,1.411765,19.530331,1.411765z M4.46921,15.057904
	c-1.685662,0-3.057445-1.371324-3.057445-3.057904c0-1.685661,1.371783-3.057445,3.057445-3.057445S7.526654,10.314339,7.526654,12
	C7.526654,13.686581,6.154871,15.057904,4.46921,15.057904z M19.530331,22.588236c-1.685661,0-3.056986-1.371325-3.056986-3.057905
	c0-1.685661,1.371325-3.056986,3.056986-3.056986c1.686581,0,3.057905,1.371325,3.057905,3.056986
	C22.588236,21.216911,21.216911,22.588236,19.530331,22.588236z"/>
</svg>
